<svg xmlns="http://www.w3.org/2000/svg" width="733" height="816" viewBox="0 0 733 816" fill="none"><path d="M370.072 509.42C391.468 500.052 412.723 491.289 433.481 481.475C459.102 469.363 483.222 454.603 506.528 438.412C533.591 419.612 558.461 398.342 580.825 374.227C602.485 350.869 622.322 326.078 636.903 297.487C638.211 294.923 640.103 292.658 641.723 290.254C642.295 290.298 642.866 290.342 643.437 290.386C644.38 293.565 645.506 296.703 646.234 299.931C650.37 318.272 654.204 336.684 658.547 354.975C662.52 371.708 670.945 386.442 679.732 401.071C689.309 417.016 698.871 433.054 707.059 449.729C719.086 474.225 711.253 496.906 693.466 514.213C691.362 516.261 687.582 517.416 684.532 517.515C672.711 517.899 660.871 517.662 649.039 517.708C641.564 517.737 641.466 517.883 641.47 525.224C641.491 562.555 641.64 599.886 641.488 637.216C641.341 673.266 623.203 697.866 589.095 709.882C572.434 715.753 555.189 716.491 537.904 717.31C517.344 718.283 497.905 722.546 481.66 736.113C471.021 744.998 464.864 756.524 462.687 770.264C462.464 771.671 460.453 773.753 459.13 773.867C452.169 774.462 445.164 774.552 438.173 774.759C435.158 774.849 434.716 773.083 434.991 770.477C438.031 741.653 451.511 719.436 476.988 705.21C495.498 694.875 515.672 690.313 536.796 689.313C552.062 688.591 567.454 688.533 581.978 682.471C595.188 676.958 606.505 669.467 611.237 655.125C612.621 650.927 613.378 646.325 613.394 641.905C613.57 593.91 613.544 545.913 613.563 497.917C613.566 490.208 613.543 490.17 621.252 490.167C638.084 490.161 654.919 490.046 671.747 490.305C677.203 490.389 680.217 488.24 682.512 483.387C687.642 472.535 683.481 462.938 678.369 453.978C668.314 436.353 656.941 419.472 647.122 401.726C641.454 391.484 637.802 380.133 633.13 369.33C632.261 367.321 630.859 365.543 629.703 363.659C628.104 364.979 626.217 366.068 624.948 367.653C597.914 401.407 566.549 430.668 531.461 455.754C486.558 487.857 438.248 513.781 386.356 532.908C352.692 545.317 318.464 555.67 283.071 561.752C264.715 564.906 246.25 567.468 227.781 569.891C223.063 570.51 220.558 572.424 218.413 576.592C210.002 592.937 196.317 601.011 177.938 600.465C155.886 599.81 138.467 580.891 137.329 558.86C136.15 536.053 156.973 510.368 188.203 515.949C200.86 518.211 210.984 525.255 216.98 537.068C218.86 540.772 221.382 542.305 225.333 541.726C247.055 538.542 269.083 536.687 290.418 531.806C317.146 525.691 343.305 517.087 370.072 509.42ZM169.564 547.031C168.903 547.779 168.147 548.464 167.598 549.286C163.858 554.892 164.214 561.965 168.461 567.418C172.254 572.289 179.028 574.026 185.129 571.693C192.125 569.017 195.462 563.974 195.059 556.717C194.744 551.05 191.986 546.817 186.962 544.456C181.06 541.684 175.306 542.432 169.564 547.031Z" fill="white"></path><path d="M169.048 287.302C189.299 282.971 206.778 290.298 216.806 307.548C219.012 311.343 221.41 312.474 225.588 312.065C260.647 308.634 295.182 302.453 329.062 292.744C405.033 270.973 474.258 235.956 536.097 186.677C547.652 177.468 558.227 167.031 569.264 157.172C570.606 155.973 572.009 154.841 573.973 153.18C579.141 159.691 584.146 165.819 588.936 172.11C591.179 175.055 588.402 176.717 586.616 178.245C570.561 191.979 554.837 206.138 538.263 219.216C498.656 250.468 454.513 274.1 408.245 293.707C350.864 318.022 291.283 334.22 228.964 339.297C223.505 339.741 220.255 341.202 217.7 346.719C209.532 364.348 189.728 373.162 169.936 368.943C152.522 365.231 138.876 348.65 137.977 330.111C137.005 310.049 148.863 293.534 169.048 287.302ZM187.814 340.51C193.845 336.029 196.221 330.356 194.634 324.229C193.15 318.502 187.79 313.914 181.768 313.217C175.579 312.5 169.601 315.683 166.917 321.124C163.991 327.054 164.892 333.721 169.231 338.25C173.702 342.917 179.987 343.834 187.814 340.51Z" fill="white"></path><path d="M356.668 431.688C351.736 453.006 338.166 464.926 317.02 466.829C297.352 468.599 277.585 451.782 275.111 431.164C273.139 414.73 279.295 401.797 292.486 392.25C305.273 382.995 319.203 382.574 333.148 389.033C338.144 391.346 342.477 395.344 346.652 399.087C349.353 401.508 351.627 402.191 355.116 401.072C388.84 390.253 420.946 375.757 452.002 358.837C478.78 344.247 504.345 327.783 528.54 309.209C552.521 290.8 573.843 269.513 594.471 247.545C600.927 240.67 606.086 232.581 611.893 225.09C615.44 220.515 616.969 220.638 619.515 225.928C621.678 230.42 623.239 235.215 625.569 239.61C627.812 243.843 626.939 247.16 623.997 250.492C616.841 258.596 609.994 266.986 602.601 274.866C573.208 306.197 540.44 333.474 504.219 356.646C460.004 384.933 413.393 408.166 363.39 424.359C359.732 425.544 356.979 427.074 356.668 431.688ZM330.775 423.058C329.668 420.859 328.885 418.405 327.391 416.512C323.156 411.142 316.307 409.488 310.427 412.052C303.91 414.894 300.557 420.724 301.486 427.6C302.485 434.994 306.742 439.411 313.878 440.458C323.545 441.875 330.796 434.79 330.775 423.058Z" fill="white"></path><path d="M420.199 134.638C437.696 125.283 454.89 116.156 471.992 106.861C473.727 105.919 474.909 103.962 476.348 102.476C474.841 101.081 473.55 99.2803 471.797 98.3503C425.16 73.6118 375.133 63.8744 322.754 65.8073C283.23 67.2658 245.29 76.3174 209.334 92.9207C176.058 108.286 146.21 128.635 121.551 155.995C94.5909 185.909 75.7215 220.474 64.1753 258.965C54.1711 292.316 51.03 326.577 52.4729 361.251C54.0325 398.723 62.229 434.926 76.5487 469.46C91.5256 505.579 108.126 541.022 123.6 576.94C138.766 612.142 148.677 648.614 147.085 687.39C146.036 712.942 140.002 737.45 129.939 760.924C129.187 762.678 126.427 764.462 124.457 764.641C118.003 765.226 111.482 765.202 104.988 765.172C98.9519 765.144 98.3252 763.959 100.448 758.297C104.83 746.612 109.616 735.048 113.339 723.154C120.957 698.815 121.16 673.931 116.927 648.983C112.797 624.645 103.495 601.958 93.6045 579.542C81.7749 552.733 69.219 526.24 57.6291 499.329C41.198 461.177 29.9504 421.48 25.8264 380.072C21.5792 337.426 24.5969 295.258 36.3799 253.854C42.5098 232.314 50.3998 211.535 61.3178 191.948C76.1684 165.305 94.2654 141.172 116.68 120.388C135.336 103.089 156.002 88.6216 178.446 76.6627C208.821 60.4776 240.978 49.2782 274.819 43.2777C315.883 35.9964 357.016 36.4059 398.122 43.5388C439.261 50.6774 476.836 66.731 512.105 88.6153C516.903 91.5926 521.437 95.0399 525.862 98.5608C530 101.853 529.917 103.026 525.701 106.033C500.307 124.143 473.657 140.171 445.491 153.579C431.216 160.375 416.717 166.705 402.23 173.043C398.491 174.679 397.745 177.712 397.278 181.039C395.531 193.473 389.205 203.007 379.148 210.293C360.943 223.484 334.896 219.201 320.771 200.647C307.251 182.886 310.648 157.452 327.275 142.949C341.409 130.621 367.963 128.866 384.336 144.892C386.967 147.467 389.464 148.052 392.845 146.538C401.805 142.525 410.855 138.712 420.199 134.638ZM341.246 181.688C347.653 194.751 363.399 191.394 367.997 183.255C371.385 177.257 370.286 169.277 365.352 164.432C360.874 160.035 352.425 159.239 346.904 162.693C340.894 166.453 338.55 173.604 341.246 181.688Z" fill="white"></path></svg>